<svg width="30" height="30" viewBox="0 0 30 30" fill="none" xmlns="http://www.w3.org/2000/svg">
<path d="M29.8692 14.9344C29.8692 23.1826 23.1828 29.869 14.9346 29.869C6.68646 29.869 0 23.1826 0 14.9344C0 6.68627 6.68646 -0.000183105 14.9346 -0.000183105C23.1828 -0.000183105 29.8692 6.68627 29.8692 14.9344Z" fill="#00A8D7"/>
<path d="M24.7772 3.71434L23.3261 4.88435L20.7051 4.60339L19.1137 4.22888L17.2491 5.40876L15.5097 4.55631L16.3523 2.40334L18.4117 2.21624L20.3383 1.02378C21.9647 1.65206 23.4672 2.56309 24.7772 3.71434Z" fill="#1CFFAD"/>
<path d="M13.9743 2.52212L13.4574 4.07307L11.9064 4.59003L11.9064 8.50355L7.77064 8.72583L4.15185 9.24279V10.7937L5.18577 11.8277V13.8956L3.63495 12.8616L2.08401 11.8277L1.18448 9.12392C2.73279 5.43422 5.69249 2.51744 9.40433 1.02289L10.8725 2.00516L13.9743 2.52212Z" fill="#00FAA1"/>
<path d="M16.0236 18.0539L15.5067 20.6388L13.4388 22.7067V24.2576L11.3709 25.8085V28.3933L9.81997 27.8764L8.78599 25.2915V20.1218L6.20113 19.6048L5.16721 17.5369V15.986L6.20113 14.9521L7.75207 13.4011L8.78599 15.469H12.4048L13.9557 18.0539H16.0236Z" fill="#00FAA1"/>
<path d="M28.0878 7.60398C30.91 12.6388 30.5884 18.8471 27.2607 23.5629L24.5149 23.0884L25.8649 20.0992L24.8309 18.0313L22.6581 16.6571L23.797 13.8955L22.2461 12.8615L19.6174 14.2083L16.5594 11.8276L16.0424 8.20878L17.5934 6.65784H20.6952L21.7291 8.20878L24.8309 8.72574L27.9328 7.69182L28.0878 7.60398Z" fill="#00FAA1"/>
<path d="M6.64511 12.6472L7.17274 13.5758L6.24301 13.217L6.64511 12.6472Z" fill="#00FAA1"/>
<path d="M5.79246 13.5621L6.25677 13.942L5.79246 14.3218L5.32816 13.942L5.79246 13.5621Z" fill="#00FAA1"/>
<path d="M5.56778 14.4233L5.37894 14.9931H4.57474L5.56778 14.4233Z" fill="#00FAA1"/>
</svg>
