<svg width="69" height="69" viewBox="0 0 69 69" fill="none" xmlns="http://www.w3.org/2000/svg">
<path d="M36.8152 64.5662C20.7662 65.4556 7.03498 53.1663 6.14561 37.1173C5.25624 21.0683 17.5455 7.33703 33.5945 6.44766C49.6435 5.55829 63.3748 17.8476 64.2642 33.8966C65.1535 49.9456 52.8642 63.6768 36.8152 64.5662Z" fill="#FFD93B"/>
<path d="M6.14554 37.1169C7.03526 53.1721 20.769 65.455 36.8152 64.5658C45.9507 64.0595 53.8719 59.394 58.8366 52.4967C54.0746 56.805 47.8603 59.5632 40.9497 59.9462C24.9035 60.8354 11.1698 48.5525 10.28 32.4973C9.89707 25.5866 11.9518 19.1056 15.7075 13.8967C9.41006 19.5926 5.63928 27.9814 6.14554 37.1169Z" fill="#F4C534"/>
<path d="M23.426 43.4457C28.6017 50.3373 38.8607 54.4348 48.528 42.3374" stroke="#3E4347" stroke-width="3.06955" stroke-linecap="round"/>
<path d="M60.9672 18.2969C60.9672 18.2969 59.9469 19.9902 57.6955 21.5004C57.6955 21.5004 58.5919 7.15786 47.4694 5.29191C50.8563 15.4656 44.6232 18.733 41.9898 13.4049C38.3851 18.8178 41.592 23.1883 41.592 23.1883C40.0086 23.5068 38.5712 21.8372 38.5712 21.8372C38.5711 22.0527 38.5764 22.2694 38.5885 22.4872C38.9392 28.8173 44.3551 33.6644 50.6853 33.3137C57.0154 32.9629 61.8626 27.5469 61.5118 21.2168C61.4554 20.2 61.2677 19.2218 60.9672 18.2969Z" fill="#FF6536"/>
<path d="M55.7588 27.1919C55.9382 30.4297 53.4589 33.1999 50.2211 33.3793C46.9834 33.5588 44.2131 31.0794 44.0337 27.8417C43.9377 26.1086 44.6033 24.5096 45.7392 23.3701C48.1765 26.3239 51.1478 21.4737 48.4414 18.202C48.4414 18.202 55.287 18.6772 55.7588 27.1919Z" fill="#FBBF00"/>
<path d="M53.5132 30.0738C53.6075 31.7746 52.3051 33.2298 50.6043 33.324C48.9035 33.4183 47.4483 32.1159 47.354 30.4151C47.3036 29.5048 47.6532 28.6648 48.25 28.0662C49.5303 29.6178 51.091 27.07 49.6694 25.3514C49.6694 25.3514 53.2653 25.6011 53.5132 30.0738Z" fill="#FFD653"/>
<path d="M32.8131 17.8529C32.8131 17.8529 31.7928 19.5462 29.5414 21.0564C29.5414 21.0564 30.4378 6.71389 19.3153 4.84795C22.7022 15.0216 16.4691 18.2891 13.8357 12.9609C10.231 18.3738 13.4379 22.7444 13.4379 22.7444C11.8545 23.0628 10.4171 21.3933 10.4171 21.3933C10.417 21.6087 10.4223 21.8254 10.4344 22.0432C10.7851 28.3733 16.201 33.2205 22.5311 32.8697C28.8613 32.5189 33.7085 27.103 33.3577 20.7728C33.3013 19.756 33.1136 18.7778 32.8131 17.8529Z" fill="#FF6536"/>
<path d="M27.6046 26.7479C27.7841 29.9856 25.3047 32.7559 22.067 32.9353C18.8292 33.1147 16.0589 30.6354 15.8795 27.3976C15.7835 25.6646 16.4491 24.0656 17.5851 22.9261C20.0224 25.8799 22.9936 21.0297 20.2873 17.758C20.2873 17.758 27.1328 18.2332 27.6046 26.7479Z" fill="#FBBF00"/>
<path d="M25.3591 29.6298C25.4533 31.3306 24.151 32.7858 22.4502 32.88C20.7494 32.9743 19.2942 31.6719 19.1999 29.9711C19.1495 29.0608 19.4991 28.2208 20.0958 27.6222C21.3762 29.1738 22.9369 26.626 21.5153 24.9074C21.5153 24.9074 25.1112 25.1571 25.3591 29.6298Z" fill="#FFD653"/>
</svg>
